<svg width="273" height="122" viewBox="0 0 273 122" fill="none" xmlns="http://www.w3.org/2000/svg">
<path d="M53.7333 96.1551C53.7793 97.0438 53.9673 97.9035 54.2754 98.7049C54.5108 99.8728 55.0116 101.006 55.7898 102.012L67.3435 116.953C70.0462 120.448 75.0707 121.09 78.5658 118.388C82.061 115.685 82.7033 110.66 80.0005 107.165L74.3546 99.8642C80.1394 97.2282 85.4368 93.5213 89.9438 88.8807C98.9989 79.5574 104.194 67.1551 104.487 54.1615C104.78 41.168 100.15 28.544 91.5241 18.8219C82.8987 9.09971 70.9163 2.99831 57.9803 1.74148C45.0444 0.484653 32.1115 4.16535 21.7759 12.0453C11.4403 19.9253 4.46625 31.4217 2.25263 44.2287C0.0390084 57.0357 2.74952 70.206 9.84051 81.0981C15.6381 90.0034 24.0132 96.8472 33.7659 100.774C38.258 102.582 42.8668 99.6248 43.9735 95.2068C45.1093 90.6728 42.2873 86.3618 38.3561 84.5363C32.4811 81.8081 27.4425 77.4719 23.8609 71.9704C19.0734 64.6167 17.2434 55.7247 18.738 47.0781C20.2325 38.4314 24.941 30.6696 31.9191 25.3495C38.8972 20.0293 47.6288 17.5443 56.3625 18.3928C65.0962 19.2414 73.1862 23.3608 79.0096 29.9247C84.8331 36.4886 87.9594 45.0116 87.7615 53.7842C87.5637 62.5569 84.0562 70.9302 77.9427 77.2249C73.3691 81.934 67.59 85.2192 61.2996 86.7654C57.0906 87.8 53.4915 91.4872 53.7333 96.1551Z" fill="white" stroke="white" stroke-width="3"/>
<rect x="182" y="32" width="18" height="69" rx="9" fill="white"/>
<rect x="216.728" y="100.484" width="18" height="78.8516" rx="9" transform="rotate(-135 216.728 100.484)" fill="white"/>
<rect x="208" y="98" width="18" height="64" rx="9" transform="rotate(-90 208 98)" fill="white"/>
<rect x="206" y="52" width="18" height="64" rx="9" transform="rotate(-90 206 52)" fill="white"/>
<circle cx="191" cy="15" r="9" fill="white"/>
<path d="M188.89 28.242L192.02 18.2333L197.025 21.6246L188.89 28.242Z" fill="white"/>
<path d="M112 41C112 36.0294 116.029 32 121 32C125.971 32 130 36.0294 130 41V68C130 72.9706 125.971 77 121 77C116.029 77 112 72.9706 112 68V41Z" fill="white"/>
<path d="M156 41C156 36.0294 160.029 32 165 32C169.971 32 174 36.0294 174 41V68C174 72.9706 169.971 77 165 77C160.029 77 156 72.9706 156 68V41Z" fill="white"/>
<path d="M112 66.5C112 71.0306 112.802 75.5168 114.36 79.7026C115.918 83.8883 118.201 87.6916 121.08 90.8952C123.958 94.0988 127.376 96.6401 131.137 98.3738C134.898 100.108 138.929 101 143 101C147.071 101 151.102 100.108 154.863 98.3738C158.624 96.6401 162.042 94.0988 164.92 90.8952C167.799 87.6916 170.082 83.8883 171.64 79.7026C173.198 75.5168 174 71.0306 174 66.5H156.349C156.349 68.4509 156.003 70.3827 155.333 72.185C154.662 73.9874 153.678 75.6251 152.439 77.0046C151.199 78.3841 149.728 79.4783 148.108 80.2249C146.489 80.9715 144.753 81.3557 143 81.3557C141.247 81.3557 139.511 80.9715 137.892 80.2249C136.272 79.4783 134.801 78.3841 133.561 77.0046C132.322 75.6251 131.338 73.9874 130.667 72.185C129.997 70.3827 129.651 68.4509 129.651 66.5L112 66.5Z" fill="white"/>
</svg>
